<svg xmlns="http://www.w3.org/2000/svg" viewBox="0 0 200 200" width="200" height="200"><path d="M100 50 L100 30" fill="none" stroke="#6B4A2B" stroke-width="6" stroke-linecap="round" stroke-linejoin="round"/><path d="M100 38 Q122 20 138 30 Q120 48 100 38 Z" fill="#79B45A"/><circle cx="70" cy="70" r="21" fill="#9B76C4"/><ellipse cx="63" cy="63" rx="5" ry="6" fill="#FFF8EC" fill-opacity="0.45"/><circle cx="100" cy="70" r="21" fill="#9B76C4"/><ellipse cx="93" cy="63" rx="5" ry="6" fill="#FFF8EC" fill-opacity="0.45"/><circle cx="130" cy="70" r="21" fill="#9B76C4"/><ellipse cx="123" cy="63" rx="5" ry="6" fill="#FFF8EC" fill-opacity="0.45"/><circle cx="85" cy="100" r="21" fill="#9B76C4"/><ellipse cx="78" cy="93" rx="5" ry="6" fill="#FFF8EC" fill-opacity="0.45"/><circle cx="115" cy="100" r="21" fill="#9B76C4"/><ellipse cx="108" cy="93" rx="5" ry="6" fill="#FFF8EC" fill-opacity="0.45"/><circle cx="100" cy="130" r="21" fill="#9B76C4"/><ellipse cx="93" cy="123" rx="5" ry="6" fill="#FFF8EC" fill-opacity="0.45"/><circle cx="100" cy="158" r="21" fill="#9B76C4"/><ellipse cx="93" cy="151" rx="5" ry="6" fill="#FFF8EC" fill-opacity="0.45"/></svg>
