<svg xmlns="http://www.w3.org/2000/svg" viewBox="0 0 200 200" width="200" height="200"><path d="M30 70 C70 56 120 84 170 70 L170 128 C120 142 70 114 30 128 Z" fill="#9B76C4"/><path d="M30 90 C70 76 120 104 170 90 M30 110 C70 96 120 124 170 110" fill="none" stroke="#C3AAD4" stroke-width="5" stroke-linecap="round" stroke-linejoin="round"/><path d="M132 128 V148" fill="none" stroke="#8464A0" stroke-width="4" stroke-linecap="round" stroke-linejoin="round"/><path d="M140 128 V148" fill="none" stroke="#8464A0" stroke-width="4" stroke-linecap="round" stroke-linejoin="round"/><path d="M148 128 V148" fill="none" stroke="#8464A0" stroke-width="4" stroke-linecap="round" stroke-linejoin="round"/><path d="M156 128 V148" fill="none" stroke="#8464A0" stroke-width="4" stroke-linecap="round" stroke-linejoin="round"/><path d="M164 128 V148" fill="none" stroke="#8464A0" stroke-width="4" stroke-linecap="round" stroke-linejoin="round"/><path d="M172 128 V148" fill="none" stroke="#8464A0" stroke-width="4" stroke-linecap="round" stroke-linejoin="round"/><path d="M34 128 V148" fill="none" stroke="#8464A0" stroke-width="4" stroke-linecap="round" stroke-linejoin="round"/><path d="M42 128 V148" fill="none" stroke="#8464A0" stroke-width="4" stroke-linecap="round" stroke-linejoin="round"/><path d="M50 128 V148" fill="none" stroke="#8464A0" stroke-width="4" stroke-linecap="round" stroke-linejoin="round"/><path d="M58 128 V148" fill="none" stroke="#8464A0" stroke-width="4" stroke-linecap="round" stroke-linejoin="round"/><path d="M66 128 V148" fill="none" stroke="#8464A0" stroke-width="4" stroke-linecap="round" stroke-linejoin="round"/></svg>
