<svg xmlns="http://www.w3.org/2000/svg" viewBox="0 0 160 160" width="160" height="160"><rect x="0" y="0" width="160" height="160" rx="44" fill="#FBDFDD"/><g transform="translate(12 14) scale(0.82)"><circle cx="60" cy="84" r="62" fill="#D9534A" fill-opacity="0.16"/><circle cx="60" cy="84" r="46" fill="#D9534A" fill-opacity="0.26"/><line x1="60" y1="6" x2="60" y2="30" stroke="#6B4A2B" stroke-width="4" stroke-linecap="round"/><rect x="38" y="26" width="44" height="14" rx="5" fill="#6B4A2B"/><rect x="20" y="36" width="80" height="94" rx="36" fill="#D9534A"/><path d="M60 38 V128 M40 40 Q24 83 40 126 M80 40 Q96 83 80 126" fill="none" stroke="#000000" stroke-opacity="0.16" stroke-width="2.5"/><ellipse cx="42" cy="64" rx="7" ry="15" fill="#FFF8EC" fill-opacity="0.45"/><rect x="38" y="124" width="44" height="12" rx="5" fill="#6B4A2B"/><rect x="54" y="136" width="12" height="20" rx="5" fill="#BA4940"/></g><path d="M56 80 Q57.8 88.2 66 90 Q57.8 91.8 56 100 Q54.2 91.8 46 90 Q54.2 88.2 56 80 Z" fill="#F2CC4A"/><path d="M74 64 Q75.08 68.92 80 70 Q75.08 71.08 74 76 Q72.92 71.08 68 70 Q72.92 68.92 74 64 Z" fill="#F2CC4A"/><g transform="rotate(35 128 70)"><rect x="122" y="30" width="12" height="70" rx="5" fill="#6B4A2B"/><rect x="120" y="94" width="16" height="20" rx="4" fill="#D9D4CC"/><path d="M120 112 H136 L130 136 Q128 140 126 136 Z" fill="#5B9BD5"/></g></svg>
