<svg xmlns="http://www.w3.org/2000/svg" viewBox="0 0 1194 834" width="1194" height="834"><rect x="0" y="0" width="1194" height="834" rx="0" fill="#2F3558"/><path d="M80 60 Q81.8 68.2 90 70 Q81.8 71.8 80 80 Q78.2 71.8 70 70 Q78.2 68.2 80 60 Z" fill="#F6E7B8"/><path d="M210 143 Q211.26 148.74 217 150 Q211.26 151.26 210 157 Q208.74 151.26 203 150 Q208.74 148.74 210 143 Z" fill="#F6E7B8"/><path d="M330 48 Q332.16 57.84 342 60 Q332.16 62.16 330 72 Q327.84 62.16 318 60 Q327.84 57.84 330 48 Z" fill="#F6E7B8"/><path d="M470 114 Q471.08 118.92 476 120 Q471.08 121.08 470 126 Q468.92 121.08 464 120 Q468.92 118.92 470 114 Z" fill="#F6E7B8"/><path d="M560 41 Q561.62 48.38 569 50 Q561.62 51.62 560 59 Q558.38 51.62 551 50 Q558.38 48.38 560 41 Z" fill="#F6E7B8"/><path d="M700 103 Q701.26 108.74 707 110 Q701.26 111.26 700 117 Q698.74 111.26 693 110 Q698.74 108.74 700 103 Z" fill="#F6E7B8"/><path d="M820 49 Q821.98 58.02 831 60 Q821.98 61.98 820 71 Q818.02 61.98 809 60 Q818.02 58.02 820 49 Z" fill="#F6E7B8"/><path d="M1080 82 Q1081.44 88.56 1088 90 Q1081.44 91.44 1080 98 Q1078.56 91.44 1072 90 Q1078.56 88.56 1080 82 Z" fill="#F6E7B8"/><path d="M150 244 Q151.08 248.92 156 250 Q151.08 251.08 150 256 Q148.92 251.08 144 250 Q148.92 248.92 150 244 Z" fill="#F6E7B8"/><path d="M400 222 Q401.44 228.56 408 230 Q401.44 231.44 400 238 Q398.56 231.44 392 230 Q398.56 228.56 400 222 Z" fill="#F6E7B8"/><path d="M1120 243 Q1121.26 248.74 1127 250 Q1121.26 251.26 1120 257 Q1118.74 251.26 1113 250 Q1118.74 248.74 1120 243 Z" fill="#F6E7B8"/><path d="M620 204 Q621.08 208.92 626 210 Q621.08 211.08 620 216 Q618.92 211.08 614 210 Q618.92 208.92 620 204 Z" fill="#F6E7B8"/><path d="M0 583.8 C214.92 500.4 382.08 533.76 597 567.12 S979.08 483.72 1194 550.44 V834 H0 Z" fill="#455053"/><path d="M0 834 C220 760 480 640 640 420 C700 330 820 330 880 420 C980 560 1100 640 1194 700 V834 Z" fill="#5B6B4E"/><circle cx="760" cy="250" r="190" fill="#FFE9A8" fill-opacity="0.12"/><g transform="translate(680 150) scale(1.35)"><circle cx="60" cy="84" r="62" fill="#FFE9A8" fill-opacity="0.16"/><circle cx="60" cy="84" r="46" fill="#FFE9A8" fill-opacity="0.26"/><line x1="60" y1="6" x2="60" y2="30" stroke="#6B4A2B" stroke-width="4" stroke-linecap="round"/><rect x="38" y="26" width="44" height="14" rx="5" fill="#6B4A2B"/><rect x="20" y="36" width="80" height="94" rx="36" fill="#F7F1E6" stroke="#4A3426" stroke-opacity="0.28" stroke-width="2.5"/><path d="M60 38 V128 M40 40 Q24 83 40 126 M80 40 Q96 83 80 126" fill="none" stroke="#000000" stroke-opacity="0.16" stroke-width="2.5"/><ellipse cx="42" cy="64" rx="7" ry="15" fill="#FFF8EC" fill-opacity="0.45"/><rect x="38" y="124" width="44" height="12" rx="5" fill="#6B4A2B"/><rect x="54" y="136" width="12" height="20" rx="5" fill="#D2CABF"/></g><g transform="translate(152 720) scale(0.3)"><circle cx="60" cy="84" r="62" fill="#D9534A" fill-opacity="0.16"/><circle cx="60" cy="84" r="46" fill="#D9534A" fill-opacity="0.26"/><line x1="60" y1="6" x2="60" y2="30" stroke="#6B4A2B" stroke-width="4" stroke-linecap="round"/><rect x="38" y="26" width="44" height="14" rx="5" fill="#6B4A2B"/><rect x="20" y="36" width="80" height="94" rx="36" fill="#D9534A"/><path d="M60 38 V128 M40 40 Q24 83 40 126 M80 40 Q96 83 80 126" fill="none" stroke="#000000" stroke-opacity="0.16" stroke-width="2.5"/><ellipse cx="42" cy="64" rx="7" ry="15" fill="#FFF8EC" fill-opacity="0.45"/><rect x="38" y="124" width="44" height="12" rx="5" fill="#6B4A2B"/><rect x="54" y="136" width="12" height="20" rx="5" fill="#BA4940"/></g><g transform="translate(282 660) scale(0.3)"><circle cx="60" cy="84" r="62" fill="#EE9A3E" fill-opacity="0.16"/><circle cx="60" cy="84" r="46" fill="#EE9A3E" fill-opacity="0.26"/><line x1="60" y1="6" x2="60" y2="30" stroke="#6B4A2B" stroke-width="4" stroke-linecap="round"/><rect x="38" y="26" width="44" height="14" rx="5" fill="#6B4A2B"/><rect x="20" y="36" width="80" height="94" rx="36" fill="#EE9A3E"/><path d="M60 38 V128 M40 40 Q24 83 40 126 M80 40 Q96 83 80 126" fill="none" stroke="#000000" stroke-opacity="0.16" stroke-width="2.5"/><ellipse cx="42" cy="64" rx="7" ry="15" fill="#FFF8EC" fill-opacity="0.45"/><rect x="38" y="124" width="44" height="12" rx="5" fill="#6B4A2B"/><rect x="54" y="136" width="12" height="20" rx="5" fill="#CB8336"/></g><g transform="translate(402 630) scale(0.3)"><circle cx="60" cy="84" r="62" fill="#F2CC4A" fill-opacity="0.16"/><circle cx="60" cy="84" r="46" fill="#F2CC4A" fill-opacity="0.26"/><line x1="60" y1="6" x2="60" y2="30" stroke="#6B4A2B" stroke-width="4" stroke-linecap="round"/><rect x="38" y="26" width="44" height="14" rx="5" fill="#6B4A2B"/><rect x="20" y="36" width="80" height="94" rx="36" fill="#F2CC4A" stroke="#4A3426" stroke-opacity="0.28" stroke-width="2.5"/><path d="M60 38 V128 M40 40 Q24 83 40 126 M80 40 Q96 83 80 126" fill="none" stroke="#000000" stroke-opacity="0.16" stroke-width="2.5"/><ellipse cx="42" cy="64" rx="7" ry="15" fill="#FFF8EC" fill-opacity="0.45"/><rect x="38" y="124" width="44" height="12" rx="5" fill="#6B4A2B"/><rect x="54" y="136" width="12" height="20" rx="5" fill="#CEAC40"/></g><g transform="translate(502 550) scale(0.3)"><circle cx="60" cy="84" r="62" fill="#79B45A" fill-opacity="0.16"/><circle cx="60" cy="84" r="46" fill="#79B45A" fill-opacity="0.26"/><line x1="60" y1="6" x2="60" y2="30" stroke="#6B4A2B" stroke-width="4" stroke-linecap="round"/><rect x="38" y="26" width="44" height="14" rx="5" fill="#6B4A2B"/><rect x="20" y="36" width="80" height="94" rx="36" fill="#79B45A"/><path d="M60 38 V128 M40 40 Q24 83 40 126 M80 40 Q96 83 80 126" fill="none" stroke="#000000" stroke-opacity="0.16" stroke-width="2.5"/><ellipse cx="42" cy="64" rx="7" ry="15" fill="#FFF8EC" fill-opacity="0.45"/><rect x="38" y="124" width="44" height="12" rx="5" fill="#6B4A2B"/><rect x="54" y="136" width="12" height="20" rx="5" fill="#6B984D"/></g><g transform="translate(582 500) scale(0.3)"><circle cx="60" cy="84" r="62" fill="#5B9BD5" fill-opacity="0.16"/><circle cx="60" cy="84" r="46" fill="#5B9BD5" fill-opacity="0.26"/><line x1="60" y1="6" x2="60" y2="30" stroke="#6B4A2B" stroke-width="4" stroke-linecap="round"/><rect x="38" y="26" width="44" height="14" rx="5" fill="#6B4A2B"/><rect x="20" y="36" width="80" height="94" rx="36" fill="#5B9BD5"/><path d="M60 38 V128 M40 40 Q24 83 40 126 M80 40 Q96 83 80 126" fill="none" stroke="#000000" stroke-opacity="0.16" stroke-width="2.5"/><ellipse cx="42" cy="64" rx="7" ry="15" fill="#FFF8EC" fill-opacity="0.45"/><rect x="38" y="124" width="44" height="12" rx="5" fill="#6B4A2B"/><rect x="54" y="136" width="12" height="20" rx="5" fill="#5284B2"/></g><g transform="translate(642 420) scale(0.3)"><circle cx="60" cy="84" r="62" fill="#9B76C4" fill-opacity="0.16"/><circle cx="60" cy="84" r="46" fill="#9B76C4" fill-opacity="0.26"/><line x1="60" y1="6" x2="60" y2="30" stroke="#6B4A2B" stroke-width="4" stroke-linecap="round"/><rect x="38" y="26" width="44" height="14" rx="5" fill="#6B4A2B"/><rect x="20" y="36" width="80" height="94" rx="36" fill="#9B76C4"/><path d="M60 38 V128 M40 40 Q24 83 40 126 M80 40 Q96 83 80 126" fill="none" stroke="#000000" stroke-opacity="0.16" stroke-width="2.5"/><ellipse cx="42" cy="64" rx="7" ry="15" fill="#FFF8EC" fill-opacity="0.45"/><rect x="38" y="124" width="44" height="12" rx="5" fill="#6B4A2B"/><rect x="54" y="136" width="12" height="20" rx="5" fill="#8765A4"/></g><g transform="translate(702 360) scale(0.3)"><circle cx="60" cy="84" r="62" fill="#EFA0B8" fill-opacity="0.16"/><circle cx="60" cy="84" r="46" fill="#EFA0B8" fill-opacity="0.26"/><line x1="60" y1="6" x2="60" y2="30" stroke="#6B4A2B" stroke-width="4" stroke-linecap="round"/><rect x="38" y="26" width="44" height="14" rx="5" fill="#6B4A2B"/><rect x="20" y="36" width="80" height="94" rx="36" fill="#EFA0B8"/><path d="M60 38 V128 M40 40 Q24 83 40 126 M80 40 Q96 83 80 126" fill="none" stroke="#000000" stroke-opacity="0.16" stroke-width="2.5"/><ellipse cx="42" cy="64" rx="7" ry="15" fill="#FFF8EC" fill-opacity="0.45"/><rect x="38" y="124" width="44" height="12" rx="5" fill="#6B4A2B"/><rect x="54" y="136" width="12" height="20" rx="5" fill="#CC889A"/></g></svg>
