<svg xmlns="http://www.w3.org/2000/svg" viewBox="0 0 1194 834" width="1194" height="834"><rect x="0" y="0" width="1194" height="834" rx="0" fill="#D6E2F0"/><circle cx="120" cy="160" r="30.6" fill="#FFF8EC" fill-opacity="0.9"/><circle cx="156" cy="147.4" r="37.8" fill="#FFF8EC" fill-opacity="0.9"/><circle cx="195.6" cy="160" r="28.8" fill="#FFF8EC" fill-opacity="0.9"/><rect x="111" y="160" width="99" height="30.6" rx="15.3" fill="#FFF8EC" fill-opacity="0.9"/><circle cx="930" cy="120" r="34" fill="#FFF8EC" fill-opacity="0.9"/><circle cx="970" cy="106" r="42" fill="#FFF8EC" fill-opacity="0.9"/><circle cx="1014" cy="120" r="32" fill="#FFF8EC" fill-opacity="0.9"/><rect x="920" y="120" width="110" height="34" rx="17" fill="#FFF8EC" fill-opacity="0.9"/><path d="M20 700 C20 538 199.4 340 250 340 C300.6 340 480 538 480 700 Z" fill="#B4BFD6"/><path d="M740 700 C740 551.5 927.2 370 980 370 C1032.8 370 1220 551.5 1220 700 Z" fill="#B4BFD6"/><path d="M300 720 C300 468 549.6 160 620 160 C690.4 160 940 468 940 720 Z" fill="#98A5C2"/><path d="M532 280 C560 214 590 176 620 176 C650 176 680 214 708 280 Q690 300 670 282 Q646 304 622 282 Q596 304 572 282 Q552 300 532 280 Z" fill="#F7F1E6"/><path d="M0 617.16 C298.5 567.12 537.3 658.86 835.8 617.16 S1098.48 583.8 1194 608.82 V834 H0 Z" fill="#A7B98C"/><g stroke="#9C6B45" stroke-width="12" stroke-linecap="round"><line x1="860" y1="770" x2="930" y2="520"/><line x1="930" y1="770" x2="1000" y2="520"/></g><line x1="871.2" y1="730" x2="941.2" y2="730" stroke="#9C6B45" stroke-width="10" stroke-linecap="round"/><line x1="885.2" y1="680" x2="955.2" y2="680" stroke="#9C6B45" stroke-width="10" stroke-linecap="round"/><line x1="899.2" y1="630" x2="969.2" y2="630" stroke="#9C6B45" stroke-width="10" stroke-linecap="round"/><line x1="913.2" y1="580" x2="983.2" y2="580" stroke="#9C6B45" stroke-width="10" stroke-linecap="round"/></svg>
