<svg xmlns="http://www.w3.org/2000/svg" viewBox="0 0 1194 834" width="1194" height="834"><rect x="0" y="0" width="1194" height="834" rx="0" fill="#F7D9A8"/><circle cx="960" cy="150" r="64" fill="#F2CC4A" fill-opacity="0.75"/><circle cx="180" cy="150" r="34" fill="#FFF8EC" fill-opacity="0.9"/><circle cx="220" cy="136" r="42" fill="#FFF8EC" fill-opacity="0.9"/><circle cx="264" cy="150" r="32" fill="#FFF8EC" fill-opacity="0.9"/><rect x="170" y="150" width="110" height="34" rx="17" fill="#FFF8EC" fill-opacity="0.9"/><circle cx="640" cy="110" r="27.2" fill="#FFF8EC" fill-opacity="0.9"/><circle cx="672" cy="98.8" r="33.6" fill="#FFF8EC" fill-opacity="0.9"/><circle cx="707.2" cy="110" r="25.6" fill="#FFF8EC" fill-opacity="0.9"/><rect x="632" y="110" width="88" height="27.2" rx="13.6" fill="#FFF8EC" fill-opacity="0.9"/><path d="M0 500.4 C214.92 417 382.08 450.36 597 483.72 S979.08 400.32 1194 467.04 V834 H0 Z" fill="#C5CF91"/><rect x="351.94" y="485.6" width="16.12" height="75.64" rx="6.2" fill="#9C6B45"/><circle cx="327.76" cy="480.64" r="32.24" fill="#8BA963"/><circle cx="393.48" cy="483.12" r="33.48" fill="#8BA963"/><circle cx="360" cy="457.08" r="45.88" fill="#98BD6E"/><circle cx="335.2" cy="467" r="27.28" fill="#98BD6E"/><circle cx="386.04" cy="469.48" r="28.52" fill="#98BD6E"/><circle cx="335.2" cy="473.2" r="6.2" fill="#D9534A"/><circle cx="373.64" cy="438.48" r="6.2" fill="#D9534A"/><circle cx="389.76" cy="478.16" r="6.2" fill="#D9534A"/><circle cx="355.04" cy="486.84" r="6.2" fill="#D9534A"/><circle cx="324.04" cy="444.68" r="6.2" fill="#D9534A"/><circle cx="403.4" cy="450.88" r="6.2" fill="#D9534A"/><rect x="832.72" y="480.8" width="14.56" height="68.32" rx="5.6" fill="#9C6B45"/><circle cx="810.88" cy="476.32" r="29.12" fill="#8BA963"/><circle cx="870.24" cy="478.56" r="30.24" fill="#8BA963"/><circle cx="840" cy="455.04" r="41.44" fill="#98BD6E"/><circle cx="817.6" cy="464" r="24.64" fill="#98BD6E"/><circle cx="863.52" cy="466.24" r="25.76" fill="#98BD6E"/><circle cx="817.6" cy="469.6" r="5.6" fill="#D9534A"/><circle cx="852.32" cy="438.24" r="5.6" fill="#D9534A"/><circle cx="866.88" cy="474.08" r="5.6" fill="#D9534A"/><circle cx="835.52" cy="481.92" r="5.6" fill="#D9534A"/><circle cx="807.52" cy="443.84" r="5.6" fill="#D9534A"/><circle cx="879.2" cy="449.44" r="5.6" fill="#D9534A"/><path d="M0 617.16 C298.5 567.12 537.3 658.86 835.8 617.16 S1098.48 583.8 1194 608.82 V834 H0 Z" fill="#9CC77E"/><rect x="133.75" y="550" width="32.5" height="152.5" rx="12.5" fill="#9C6B45"/><circle cx="85" cy="540" r="65" fill="#70A251"/><circle cx="217.5" cy="545" r="67.5" fill="#70A251"/><circle cx="150" cy="492.5" r="92.5" fill="#79B45A"/><circle cx="100" cy="512.5" r="55" fill="#79B45A"/><circle cx="202.5" cy="517.5" r="57.5" fill="#79B45A"/><circle cx="100" cy="525" r="12.5" fill="#D9534A"/><circle cx="177.5" cy="455" r="12.5" fill="#D9534A"/><circle cx="210" cy="535" r="12.5" fill="#D9534A"/><circle cx="140" cy="552.5" r="12.5" fill="#D9534A"/><circle cx="77.5" cy="467.5" r="12.5" fill="#D9534A"/><circle cx="237.5" cy="480" r="12.5" fill="#D9534A"/><rect x="1042.45" y="528" width="35.1" height="164.7" rx="13.5" fill="#9C6B45"/><circle cx="989.8" cy="517.2" r="70.2" fill="#70A251"/><circle cx="1132.9" cy="522.6" r="72.9" fill="#70A251"/><circle cx="1060" cy="465.9" r="99.9" fill="#79B45A"/><circle cx="1006" cy="487.5" r="59.4" fill="#79B45A"/><circle cx="1116.7" cy="492.9" r="62.1" fill="#79B45A"/><circle cx="1006" cy="501" r="13.5" fill="#D9534A"/><circle cx="1089.7" cy="425.4" r="13.5" fill="#D9534A"/><circle cx="1124.8" cy="511.8" r="13.5" fill="#D9534A"/><circle cx="1049.2" cy="530.7" r="13.5" fill="#D9534A"/><circle cx="981.7" cy="438.9" r="13.5" fill="#D9534A"/><circle cx="1154.5" cy="452.4" r="13.5" fill="#D9534A"/></svg>
